#!OML:ASF F:\VICON\USERDATA\INSTALL\rory3\rory3.ASF
:FULLY-SPECIFIED
:DEGREES
717
root 2.50176 33.2752 -3.33893 -171.498 -3.72251 177.909
lowerback 5.06705 -0.017391 -2.97397
upperback 0.278668 -0.188138 0.897272
thorax -2.54266 -0.0628568 2.60865
lowerneck -16.9706 3.52989 -9.19454
upperneck 42.0433 3.39135 0.628157
head 18.5443 -1.72223 2.0575
rclavicle -4.07509e-015 9.54166e-015
rhumerus -1.56984 35.0233 -88.496
rradius 79.8734
rwrist 51.7252
rhand -16.8485 -2.14168
rfingers 7.12502
rthumb 9.38154 -31.9129
lclavicle -4.07509e-015 9.54166e-015
lhumerus 0.300323 -20.0547 85.0884
lradius 70.3386
lwrist -31.3996
lhand -31.3617 28.4299
lfingers 7.12502
lthumb -4.6324 58.3592
rfemur -25.2288 1.26709 21.943
rtibia 35.0092
rfoot -16.4352 -1.60437
rtoes 22.0557
lfemur -22.6999 1.82331 -23.2301
ltibia 30.0795
lfoot -11.5147 1.98318
ltoes -14.4486
718
root 2.51968 33.2699 -3.34248 -171.508 -3.84467 177.975
lowerback 5.06349 0.0303101 -3.06632
upperback 0.322482 -0.12546 1.14331
thorax -2.49914 -0.031755 2.91053
lowerneck -16.8608 3.4866 -9.44927
upperneck 42.0445 3.40308 0.583961
head 18.5129 -1.76895 2.08019
rclavicle 7.7526e-015 -1.63003e-014
rhumerus -1.35476 35.2762 -87.9482
rradius 79.8959
rwrist 51.7563
rhand -16.7825 -3.07882
rfingers 7.12502
rthumb 9.44523 -32.8472
lclavicle 7.7526e-015 -1.63003e-014
lhumerus 0.313728 -19.8494 85.5817
lradius 70.246
lwrist -31.4924
lhand -31.7741 28.467
lfingers 7.12502
lthumb -5.03064 58.3873
rfemur -25.1938 1.11832 22.1113
rtibia 34.9839
rfoot -16.5025 -1.58887
rtoes 22.1422
lfemur -22.7236 1.75987 -23.1019
ltibia 30.1361
lfoot -11.5518 2.04272
ltoes -14.3829
719
root 2.53828 33.2641 -3.3458 -171.524 -3.97784 178.076
lowerback 5.27224 -0.0573293 -2.80085
upperback 0.267903 -0.232472 1.18406
thorax -2.66541 -0.0846011 2.8123
lowerneck -16.93 3.58631 -9.63585
upperneck 42.1642 3.56426 0.702709
head 18.5815 -1.73669 2.19851
rclavicle 9.74045e-015 3.97569e-016
rhumerus -1.33296 35.6764 -87.9848
rradius 79.8709
rwrist 51.8485
rhand -16.9414 -3.891
rfingers 7.12502
rthumb 9.29187 -33.6662
lclavicle 9.74045e-015 3.97569e-016
lhumerus 0.22609 -19.5891 85.5591
lradius 70.1978
lwrist -31.4321
lhand -32.1482 28.735
lfingers 7.12502
lthumb -5.39178 58.6464
rfemur -25.1891 1.02227 22.3126
rtibia 34.9865
rfoot -16.5858 -1.59512
rtoes 22.0801
lfemur -22.7561 1.65046 -22.9318
ltibia 30.1919
lfoot -11.6511 2.19215
ltoes -14.2084
720
root 2.55635 33.2573 -3.35336 -171.638 -4.04618 178.094
lowerback 5.26325 0.0194554 -2.84282
upperback 0.311351 -0.131683 1.27093
thorax -2.62234 -0.0355343 2.9182
lowerneck -16.5454 3.57353 -9.74259
upperneck 42.1088 3.47299 0.741323
head 18.4445 -1.78504 2.21004
rclavicle -7.25564e-015 3.97569e-015
rhumerus -1.43209 35.7044 -87.8021
rradius 79.9438
rwrist 51.9648
rhand -17.1757 -4.51589
rfingers 7.12502
rthumb 9.06583 -34.3011
lclavicle -7.25564e-015 3.97569e-015
lhumerus 0.211185 -19.6881 85.7099
lradius 70.2416
lwrist -31.295
lhand -32.2509 28.5406
lfingers 7.12502
lthumb -5.491 58.4495
rfemur -25.054 0.969568 22.4125
rtibia 35.0164
rfoot -16.701 -1.6142
rtoes 22.0711
lfemur -22.6385 1.54931 -22.8619
ltibia 30.2458
lfoot -11.837 2.41598
ltoes -14.3084
721
root 2.57632 33.2483 -3.35847 -171.672 -4.17109 178.117
lowerback 5.15972 -0.0246273 -2.60305
upperback 0.413201 -0.177489 1.17986
thorax -2.45683 -0.0663206 2.69106
lowerneck -16.3411 3.61898 -9.88579
upperneck 42.0108 3.48589 0.952841
head 18.3124 -1.75906 2.33642
rclavicle 6.06293e-015 -6.36111e-015
rhumerus -1.27783 35.7643 -87.7995
rradius 80.098
rwrist 52.0715
rhand -16.9484 -3.58997
rfingers 7.12502
rthumb 9.28514 -33.3655
lclavicle 6.06293e-015 -6.36111e-015
lhumerus 0.380994 -19.6675 85.4947
lradius 70.2546
lwrist -31.1875
lhand -32.2517 27.9779
lfingers 7.12502
lthumb -5.49179 57.8867
rfemur -25.0301 0.952832 22.5221
rtibia 35.0756
rfoot -16.8771 -1.69303
rtoes 22.1388
lfemur -22.6035 1.36192 -22.7559
ltibia 30.2872
lfoot -11.9762 2.57766
ltoes -14.5597
722
root 2.59514 33.2391 -3.36121 -171.665 -4.2438 178.155
lowerback 5.14954 -0.0103009 -2.61045
upperback 0.487034 -0.158565 1.31382
thorax -2.37597 -0.0600156 2.83208
lowerneck -16.3928 3.60475 -10.1503
upperneck 42.0264 3.54953 1.01074
head 18.3234 -1.76772 2.42351
rclavicle 6.85807e-015 -9.93923e-015
rhumerus -1.14331 35.9559 -87.6023
rradius 80.2158
rwrist 52.2992
rhand -15.9413 0.0868718
rfingers 7.12502
rthumb 10.2568 -29.6431
lclavicle 6.85807e-015 -9.93923e-015
lhumerus 0.613987 -19.5 85.7064
lradius 70.1216
lwrist -31.1925
lhand -32.2729 28.0769
lfingers 7.12502
lthumb -5.51221 57.9852
rfemur -25.098 0.939378 22.6308
rtibia 35.1718
rfoot -17.0203 -1.68359
rtoes 22.1011
lfemur -22.6219 1.26196 -22.6569
ltibia 30.3017
lfoot -12.0486 2.69933
ltoes -14.9223
